<?xml version="1.0" standalone="no"?>
<!DOCTYPE svg PUBLIC "-//W3C//DTD SVG 20010904//EN"
 "http://www.w3.org/TR/2001/REC-SVG-20010904/DTD/svg10.dtd">
<svg version="1.0" xmlns="http://www.w3.org/2000/svg"
 width="300.000000pt" height="300.000000pt" viewBox="0 0 300.000000 300.000000"
 preserveAspectRatio="xMidYMid meet">
<metadata>
Created by potrace 1.11, written by Peter Selinger 2001-2013
</metadata>
<g transform="translate(0.000000,300.000000) scale(0.100000,-0.100000)"
fill="#000000" stroke="none">
<path d="M1003 2476 c-97 -32 -187 -117 -222 -212 -30 -79 -26 -186 9 -261 14
-29 140 -199 280 -378 253 -323 255 -326 267 -298 7 15 12 37 13 48 0 11 -73
113 -166 230 -91 116 -174 226 -184 245 -69 134 6 302 154 345 49 14 68 15
115 6 64 -13 125 -51 159 -101 l24 -35 -4 85 c-5 104 -28 160 -94 230 -65 70
-136 103 -233 107 -46 2 -93 -3 -118 -11z"/>
<path d="M1793 2476 c-59 -19 -104 -49 -153 -102 -60 -65 -83 -123 -88 -224
l-4 -85 36 42 c50 57 107 83 184 83 102 0 178 -46 225 -135 28 -54 28 -145 0
-200 -12 -22 -88 -124 -171 -228 l-150 -187 14 -47 c8 -25 16 -48 17 -50 8 -8
484 612 507 660 35 75 39 182 9 262 -28 75 -102 155 -177 192 -65 32 -182 41
-249 19z"/>
<path d="M419 1957 c-91 -34 -155 -93 -195 -180 -66 -146 -8 -332 130 -412 37
-21 894 -282 900 -274 11 13 25 74 19 80 -5 3 -147 48 -318 98 -171 51 -329
104 -353 117 -149 87 -138 319 18 401 37 20 57 23 118 21 39 -2 72 -1 72 3 0
17 -102 108 -145 129 -60 30 -188 38 -246 17z"/>
<path d="M2369 1956 c-56 -22 -113 -63 -149 -108 -30 -36 -31 -40 -10 -33 50
16 130 6 182 -22 182 -99 162 -365 -33 -436 -24 -9 -169 -53 -323 -99 l-278
-82 6 -34 c3 -19 7 -37 10 -40 9 -9 829 239 872 263 139 80 196 264 129 414
-30 67 -88 126 -157 162 -54 28 -193 36 -249 15z"/>
<path d="M1432 1883 c-11 -22 -5 -43 13 -43 15 0 59 -87 70 -137 9 -44 2 -41
-28 10 -14 23 -34 51 -46 61 -12 11 -21 30 -21 43 0 20 -4 24 -22 21 -36 -5
-36 -43 0 -56 26 -9 98 -99 88 -109 -5 -6 -97 64 -112 85 -16 22 -46 8 -42
-20 2 -18 10 -23 30 -23 16 0 44 -13 64 -28 34 -28 35 -30 18 -48 -24 -27 -22
-94 4 -122 l21 -22 -100 -294 c-86 -254 -99 -302 -99 -359 0 -82 25 -137 85
-190 77 -67 174 -81 263 -36 87 43 142 132 142 228 0 23 -41 180 -91 349 -50
170 -87 312 -84 315 4 4 43 21 88 38 l82 31 -35 15 c-19 8 -63 26 -97 39 l-63
24 -2 75 c-1 41 -2 95 -3 120 0 36 -4 45 -19 48 -30 6 -37 -19 -15 -54 21 -35
41 -192 22 -181 -6 4 -13 25 -17 47 -3 23 -16 62 -28 87 -12 26 -22 58 -22 72
-1 31 -30 40 -44 14z m106 -286 c4 -20 -25 -34 -40 -19 -15 15 -1 44 19 40 10
-2 19 -11 21 -21z"/>
<path d="M235 1266 c-95 -30 -162 -88 -204 -176 -38 -80 -37 -192 2 -272 57
-115 168 -183 297 -182 58 1 110 17 465 146 l400 146 18 47 c10 26 16 49 15
51 -2 1 -141 -47 -308 -107 -351 -127 -390 -134 -473 -86 -80 47 -121 146 -97
231 23 83 107 154 185 157 48 1 -164 59 -215 58 -25 0 -63 -6 -85 -13z"/>
<path d="M2551 1258 l-74 -22 41 -14 c75 -25 142 -120 142 -203 0 -122 -137
-239 -251 -214 -18 4 -161 54 -318 111 -157 57 -286 102 -288 101 -5 -5 23
-87 32 -96 6 -4 181 -70 390 -146 336 -122 387 -138 445 -139 129 -1 240 67
297 182 39 80 40 192 2 272 -74 156 -236 221 -418 168z"/>
</g>
</svg>
